<mxfile host="app.diagrams.net" agent="Mozilla/5.0 (Windows NT 10.0; Win64; x64) AppleWebKit/537.36 (KHTML, like Gecko) Chrome/134.0.0.0 Safari/537.36" version="26.2.4">
  <diagram name="Page-1" id="74e2e168-ea6b-b213-b513-2b3c1d86103e">
    <mxGraphModel dx="1491" dy="803" grid="1" gridSize="10" guides="1" tooltips="1" connect="1" arrows="1" fold="1" page="1" pageScale="1" pageWidth="1100" pageHeight="850" background="none" math="0" shadow="0">
      <root>
        <mxCell id="0" />
        <mxCell id="1" parent="0" />
        <mxCell id="cNqAFFshYy9XBHz7ugLl-1" value="&lt;font style=&quot;font-size: 18px;&quot;&gt;新增操作票&lt;/font&gt;" style="swimlane;html=1;childLayout=stackLayout;startSize=20;rounded=0;shadow=0;labelBackgroundColor=none;strokeWidth=1;fontFamily=Verdana;fontSize=8;align=center;" vertex="1" parent="1">
          <mxGeometry x="70" y="40" width="800" height="1460" as="geometry" />
        </mxCell>
        <mxCell id="cNqAFFshYy9XBHz7ugLl-2" value="接收请求" style="swimlane;html=1;startSize=20;" vertex="1" parent="cNqAFFshYy9XBHz7ugLl-1">
          <mxGeometry y="20" width="160" height="1440" as="geometry">
            <mxRectangle y="20" width="40" height="730" as="alternateBounds" />
          </mxGeometry>
        </mxCell>
        <mxCell id="cNqAFFshYy9XBHz7ugLl-3" style="edgeStyle=orthogonalEdgeStyle;rounded=0;orthogonalLoop=1;jettySize=auto;html=1;exitX=0.5;exitY=1;exitDx=0;exitDy=0;entryX=0.5;entryY=0;entryDx=0;entryDy=0;" edge="1" parent="cNqAFFshYy9XBHz7ugLl-2" source="cNqAFFshYy9XBHz7ugLl-4" target="cNqAFFshYy9XBHz7ugLl-10">
          <mxGeometry relative="1" as="geometry">
            <mxPoint x="70" y="167.5" as="targetPoint" />
          </mxGeometry>
        </mxCell>
        <mxCell id="cNqAFFshYy9XBHz7ugLl-4" value="&lt;font style=&quot;font-size: 12px;&quot;&gt;开始&lt;/font&gt;" style="rounded=1;whiteSpace=wrap;html=1;shadow=0;labelBackgroundColor=none;strokeWidth=1;fontFamily=Verdana;fontSize=8;align=center;" vertex="1" parent="cNqAFFshYy9XBHz7ugLl-2">
          <mxGeometry x="20" y="65" width="100" height="60" as="geometry" />
        </mxCell>
        <mxCell id="cNqAFFshYy9XBHz7ugLl-5" value="&lt;span style=&quot;font-size: 12px;&quot;&gt;不允许appId&lt;/span&gt;&lt;div&gt;&lt;span style=&quot;font-size: 12px;&quot;&gt;为空且&lt;/span&gt;&lt;span style=&quot;font-size: 12px; background-color: transparent; color: light-dark(rgb(0, 0, 0), rgb(255, 255, 255));&quot;&gt;appId为空&lt;/span&gt;&lt;/div&gt;" style="rhombus;whiteSpace=wrap;html=1;rounded=0;shadow=0;labelBackgroundColor=none;strokeWidth=1;fontFamily=Verdana;fontSize=8;align=center;" vertex="1" parent="cNqAFFshYy9XBHz7ugLl-2">
          <mxGeometry x="20" y="365" width="100" height="75" as="geometry" />
        </mxCell>
        <mxCell id="cNqAFFshYy9XBHz7ugLl-6" style="edgeStyle=orthogonalEdgeStyle;rounded=0;orthogonalLoop=1;jettySize=auto;html=1;entryX=0.5;entryY=0;entryDx=0;entryDy=0;exitX=0.5;exitY=1;exitDx=0;exitDy=0;" edge="1" parent="cNqAFFshYy9XBHz7ugLl-2" source="cNqAFFshYy9XBHz7ugLl-5" target="cNqAFFshYy9XBHz7ugLl-8">
          <mxGeometry relative="1" as="geometry">
            <mxPoint x="70" y="980" as="targetPoint" />
            <mxPoint x="70" y="580" as="sourcePoint" />
          </mxGeometry>
        </mxCell>
        <mxCell id="cNqAFFshYy9XBHz7ugLl-7" value="是" style="edgeLabel;html=1;align=center;verticalAlign=middle;resizable=0;points=[];" vertex="1" connectable="0" parent="cNqAFFshYy9XBHz7ugLl-6">
          <mxGeometry x="-0.24" y="-1" relative="1" as="geometry">
            <mxPoint as="offset" />
          </mxGeometry>
        </mxCell>
        <mxCell id="cNqAFFshYy9XBHz7ugLl-8" value="&lt;span style=&quot;font-size: 12px;&quot;&gt;失败返回&lt;/span&gt;" style="whiteSpace=wrap;html=1;fontSize=8;fontFamily=Verdana;rounded=0;shadow=0;labelBackgroundColor=none;strokeWidth=1;" vertex="1" parent="cNqAFFshYy9XBHz7ugLl-2">
          <mxGeometry x="20" y="1360" width="100" height="60" as="geometry" />
        </mxCell>
        <mxCell id="cNqAFFshYy9XBHz7ugLl-9" style="edgeStyle=orthogonalEdgeStyle;rounded=0;orthogonalLoop=1;jettySize=auto;html=1;exitX=0.5;exitY=1;exitDx=0;exitDy=0;" edge="1" parent="cNqAFFshYy9XBHz7ugLl-2" source="cNqAFFshYy9XBHz7ugLl-10" target="cNqAFFshYy9XBHz7ugLl-12">
          <mxGeometry relative="1" as="geometry" />
        </mxCell>
        <mxCell id="cNqAFFshYy9XBHz7ugLl-10" value="&lt;span style=&quot;font-size: 12px;&quot;&gt;获取应用id&lt;/span&gt;" style="whiteSpace=wrap;html=1;fontSize=8;fontFamily=Verdana;rounded=0;shadow=0;labelBackgroundColor=none;strokeWidth=1;" vertex="1" parent="cNqAFFshYy9XBHz7ugLl-2">
          <mxGeometry x="20" y="160" width="100" height="60" as="geometry" />
        </mxCell>
        <mxCell id="cNqAFFshYy9XBHz7ugLl-11" style="edgeStyle=orthogonalEdgeStyle;rounded=0;orthogonalLoop=1;jettySize=auto;html=1;exitX=0.5;exitY=1;exitDx=0;exitDy=0;entryX=0.5;entryY=0;entryDx=0;entryDy=0;" edge="1" parent="cNqAFFshYy9XBHz7ugLl-2" source="cNqAFFshYy9XBHz7ugLl-12" target="cNqAFFshYy9XBHz7ugLl-5">
          <mxGeometry relative="1" as="geometry" />
        </mxCell>
        <mxCell id="cNqAFFshYy9XBHz7ugLl-12" value="&lt;span style=&quot;font-size: 12px;&quot;&gt;查询配置项checkAppId&lt;/span&gt;" style="whiteSpace=wrap;html=1;fontSize=8;fontFamily=Verdana;rounded=0;shadow=0;labelBackgroundColor=none;strokeWidth=1;" vertex="1" parent="cNqAFFshYy9XBHz7ugLl-2">
          <mxGeometry x="20" y="260" width="100" height="60" as="geometry" />
        </mxCell>
        <mxCell id="cNqAFFshYy9XBHz7ugLl-13" value="获取人员信息" style="swimlane;html=1;startSize=20;" vertex="1" parent="cNqAFFshYy9XBHz7ugLl-1">
          <mxGeometry x="160" y="20" width="160" height="1440" as="geometry" />
        </mxCell>
        <mxCell id="cNqAFFshYy9XBHz7ugLl-14" style="edgeStyle=orthogonalEdgeStyle;rounded=0;orthogonalLoop=1;jettySize=auto;html=1;exitX=0.5;exitY=1;exitDx=0;exitDy=0;" edge="1" parent="cNqAFFshYy9XBHz7ugLl-13" source="cNqAFFshYy9XBHz7ugLl-18" target="cNqAFFshYy9XBHz7ugLl-23">
          <mxGeometry relative="1" as="geometry" />
        </mxCell>
        <mxCell id="cNqAFFshYy9XBHz7ugLl-15" value="否" style="edgeLabel;html=1;align=center;verticalAlign=middle;resizable=0;points=[];" vertex="1" connectable="0" parent="cNqAFFshYy9XBHz7ugLl-14">
          <mxGeometry x="-0.4145" relative="1" as="geometry">
            <mxPoint y="-1" as="offset" />
          </mxGeometry>
        </mxCell>
        <mxCell id="cNqAFFshYy9XBHz7ugLl-16" style="edgeStyle=orthogonalEdgeStyle;rounded=0;orthogonalLoop=1;jettySize=auto;html=1;exitX=1;exitY=0.5;exitDx=0;exitDy=0;entryX=0.5;entryY=0;entryDx=0;entryDy=0;" edge="1" parent="cNqAFFshYy9XBHz7ugLl-13" source="cNqAFFshYy9XBHz7ugLl-18" target="cNqAFFshYy9XBHz7ugLl-28">
          <mxGeometry relative="1" as="geometry">
            <Array as="points">
              <mxPoint x="140" y="190" />
              <mxPoint x="140" y="570" />
              <mxPoint x="80" y="570" />
            </Array>
          </mxGeometry>
        </mxCell>
        <mxCell id="cNqAFFshYy9XBHz7ugLl-17" value="是" style="edgeLabel;html=1;align=center;verticalAlign=middle;resizable=0;points=[];" vertex="1" connectable="0" parent="cNqAFFshYy9XBHz7ugLl-16">
          <mxGeometry x="-0.978" y="3" relative="1" as="geometry">
            <mxPoint as="offset" />
          </mxGeometry>
        </mxCell>
        <mxCell id="cNqAFFshYy9XBHz7ugLl-18" value="&lt;span style=&quot;font-size: 12px;&quot;&gt;从请求参数中&lt;/span&gt;&lt;div&gt;&lt;span style=&quot;font-size: 12px;&quot;&gt;获取到用户信息&lt;/span&gt;&lt;/div&gt;" style="rhombus;whiteSpace=wrap;html=1;rounded=0;shadow=0;labelBackgroundColor=none;strokeWidth=1;fontFamily=Verdana;fontSize=8;align=center;" vertex="1" parent="cNqAFFshYy9XBHz7ugLl-13">
          <mxGeometry x="30" y="152.5" width="100" height="75" as="geometry" />
        </mxCell>
        <mxCell id="cNqAFFshYy9XBHz7ugLl-19" style="edgeStyle=orthogonalEdgeStyle;rounded=0;orthogonalLoop=1;jettySize=auto;html=1;exitX=0.5;exitY=1;exitDx=0;exitDy=0;" edge="1" parent="cNqAFFshYy9XBHz7ugLl-13" source="cNqAFFshYy9XBHz7ugLl-23" target="cNqAFFshYy9XBHz7ugLl-25">
          <mxGeometry relative="1" as="geometry" />
        </mxCell>
        <mxCell id="cNqAFFshYy9XBHz7ugLl-20" value="是" style="edgeLabel;html=1;align=center;verticalAlign=middle;resizable=0;points=[];" vertex="1" connectable="0" parent="cNqAFFshYy9XBHz7ugLl-19">
          <mxGeometry x="-0.4928" y="-1" relative="1" as="geometry">
            <mxPoint as="offset" />
          </mxGeometry>
        </mxCell>
        <mxCell id="cNqAFFshYy9XBHz7ugLl-21" style="edgeStyle=orthogonalEdgeStyle;rounded=0;orthogonalLoop=1;jettySize=auto;html=1;exitX=0;exitY=0.5;exitDx=0;exitDy=0;entryX=0.5;entryY=0;entryDx=0;entryDy=0;" edge="1" parent="cNqAFFshYy9XBHz7ugLl-13" source="cNqAFFshYy9XBHz7ugLl-23">
          <mxGeometry relative="1" as="geometry">
            <mxPoint x="80" y="490" as="targetPoint" />
            <Array as="points">
              <mxPoint x="10" y="307" />
              <mxPoint x="10" y="480" />
              <mxPoint x="80" y="480" />
            </Array>
          </mxGeometry>
        </mxCell>
        <mxCell id="cNqAFFshYy9XBHz7ugLl-22" value="否" style="edgeLabel;html=1;align=center;verticalAlign=middle;resizable=0;points=[];" vertex="1" connectable="0" parent="cNqAFFshYy9XBHz7ugLl-21">
          <mxGeometry x="-0.9258" y="1" relative="1" as="geometry">
            <mxPoint as="offset" />
          </mxGeometry>
        </mxCell>
        <mxCell id="cNqAFFshYy9XBHz7ugLl-23" value="&lt;span style=&quot;font-size: 12px;&quot;&gt;获取一人多岗的配置项开关为开&lt;/span&gt;" style="rhombus;whiteSpace=wrap;html=1;rounded=0;shadow=0;labelBackgroundColor=none;strokeWidth=1;fontFamily=Verdana;fontSize=8;align=center;" vertex="1" parent="cNqAFFshYy9XBHz7ugLl-13">
          <mxGeometry x="30" y="270" width="100" height="75" as="geometry" />
        </mxCell>
        <mxCell id="cNqAFFshYy9XBHz7ugLl-24" style="edgeStyle=orthogonalEdgeStyle;rounded=0;orthogonalLoop=1;jettySize=auto;html=1;exitX=0.5;exitY=1;exitDx=0;exitDy=0;entryX=0.5;entryY=0;entryDx=0;entryDy=0;" edge="1" parent="cNqAFFshYy9XBHz7ugLl-13" source="cNqAFFshYy9XBHz7ugLl-25" target="cNqAFFshYy9XBHz7ugLl-28">
          <mxGeometry relative="1" as="geometry">
            <Array as="points">
              <mxPoint x="80" y="460" />
              <mxPoint x="140" y="460" />
              <mxPoint x="140" y="570" />
              <mxPoint x="80" y="570" />
            </Array>
          </mxGeometry>
        </mxCell>
        <mxCell id="cNqAFFshYy9XBHz7ugLl-25" value="&lt;span style=&quot;font-size: 12px;&quot;&gt;获取单位级别最大的用户信息&lt;/span&gt;" style="whiteSpace=wrap;html=1;fontSize=8;fontFamily=Verdana;rounded=0;shadow=0;labelBackgroundColor=none;strokeWidth=1;" vertex="1" parent="cNqAFFshYy9XBHz7ugLl-13">
          <mxGeometry x="30" y="390" width="100" height="60" as="geometry" />
        </mxCell>
        <mxCell id="cNqAFFshYy9XBHz7ugLl-26" style="edgeStyle=orthogonalEdgeStyle;rounded=0;orthogonalLoop=1;jettySize=auto;html=1;exitX=0.5;exitY=1;exitDx=0;exitDy=0;entryX=0.5;entryY=0;entryDx=0;entryDy=0;" edge="1" parent="cNqAFFshYy9XBHz7ugLl-13" source="cNqAFFshYy9XBHz7ugLl-27" target="cNqAFFshYy9XBHz7ugLl-28">
          <mxGeometry relative="1" as="geometry" />
        </mxCell>
        <mxCell id="cNqAFFshYy9XBHz7ugLl-27" value="&lt;span style=&quot;font-size: 12px;&quot;&gt;调用接口获取&lt;/span&gt;&lt;div&gt;&lt;span style=&quot;font-size: 12px;&quot;&gt;当前用户信息&lt;/span&gt;&lt;/div&gt;" style="whiteSpace=wrap;html=1;fontSize=8;fontFamily=Verdana;rounded=0;shadow=0;labelBackgroundColor=none;strokeWidth=1;" vertex="1" parent="cNqAFFshYy9XBHz7ugLl-13">
          <mxGeometry x="30" y="490" width="100" height="60" as="geometry" />
        </mxCell>
        <mxCell id="cNqAFFshYy9XBHz7ugLl-28" value="&lt;span style=&quot;font-size: 12px;&quot;&gt;给创建操作票的参数对象赋值用户信息&lt;/span&gt;" style="whiteSpace=wrap;html=1;fontSize=8;fontFamily=Verdana;rounded=0;shadow=0;labelBackgroundColor=none;strokeWidth=1;" vertex="1" parent="cNqAFFshYy9XBHz7ugLl-13">
          <mxGeometry x="30" y="590" width="100" height="60" as="geometry" />
        </mxCell>
        <mxCell id="cNqAFFshYy9XBHz7ugLl-29" value="操作票数据组装-1" style="swimlane;html=1;startSize=20;" vertex="1" parent="cNqAFFshYy9XBHz7ugLl-1">
          <mxGeometry x="320" y="20" width="160" height="1440" as="geometry" />
        </mxCell>
        <mxCell id="cNqAFFshYy9XBHz7ugLl-30" style="edgeStyle=orthogonalEdgeStyle;rounded=0;orthogonalLoop=1;jettySize=auto;html=1;exitX=0.5;exitY=1;exitDx=0;exitDy=0;entryX=0.5;entryY=0;entryDx=0;entryDy=0;" edge="1" parent="cNqAFFshYy9XBHz7ugLl-29" source="cNqAFFshYy9XBHz7ugLl-34" target="cNqAFFshYy9XBHz7ugLl-36">
          <mxGeometry relative="1" as="geometry" />
        </mxCell>
        <mxCell id="cNqAFFshYy9XBHz7ugLl-31" value="是" style="edgeLabel;html=1;align=center;verticalAlign=middle;resizable=0;points=[];" vertex="1" connectable="0" parent="cNqAFFshYy9XBHz7ugLl-30">
          <mxGeometry x="-0.2837" y="2" relative="1" as="geometry">
            <mxPoint as="offset" />
          </mxGeometry>
        </mxCell>
        <mxCell id="cNqAFFshYy9XBHz7ugLl-32" style="edgeStyle=orthogonalEdgeStyle;rounded=0;orthogonalLoop=1;jettySize=auto;html=1;exitX=0;exitY=0.5;exitDx=0;exitDy=0;entryX=0.5;entryY=0;entryDx=0;entryDy=0;" edge="1" parent="cNqAFFshYy9XBHz7ugLl-29" source="cNqAFFshYy9XBHz7ugLl-34" target="cNqAFFshYy9XBHz7ugLl-41">
          <mxGeometry relative="1" as="geometry">
            <Array as="points">
              <mxPoint x="10" y="187" />
              <mxPoint x="10" y="350" />
              <mxPoint x="80" y="350" />
            </Array>
          </mxGeometry>
        </mxCell>
        <mxCell id="cNqAFFshYy9XBHz7ugLl-33" value="否" style="edgeLabel;html=1;align=center;verticalAlign=middle;resizable=0;points=[];" vertex="1" connectable="0" parent="cNqAFFshYy9XBHz7ugLl-32">
          <mxGeometry x="-0.898" relative="1" as="geometry">
            <mxPoint as="offset" />
          </mxGeometry>
        </mxCell>
        <mxCell id="cNqAFFshYy9XBHz7ugLl-34" value="&lt;span style=&quot;font-size: 12px;&quot;&gt;请求参数中&lt;/span&gt;&lt;div&gt;&lt;span style=&quot;font-size: 12px;&quot;&gt;检修计划id不为空&lt;/span&gt;&lt;/div&gt;" style="rhombus;whiteSpace=wrap;html=1;rounded=0;shadow=0;labelBackgroundColor=none;strokeWidth=1;fontFamily=Verdana;fontSize=8;align=center;" vertex="1" parent="cNqAFFshYy9XBHz7ugLl-29">
          <mxGeometry x="30" y="150" width="100" height="75" as="geometry" />
        </mxCell>
        <mxCell id="cNqAFFshYy9XBHz7ugLl-35" style="edgeStyle=orthogonalEdgeStyle;rounded=0;orthogonalLoop=1;jettySize=auto;html=1;exitX=0.5;exitY=1;exitDx=0;exitDy=0;entryX=0.5;entryY=0;entryDx=0;entryDy=0;" edge="1" parent="cNqAFFshYy9XBHz7ugLl-29" source="cNqAFFshYy9XBHz7ugLl-36" target="cNqAFFshYy9XBHz7ugLl-41">
          <mxGeometry relative="1" as="geometry" />
        </mxCell>
        <mxCell id="cNqAFFshYy9XBHz7ugLl-36" value="&lt;span style=&quot;font-size: 12px;&quot;&gt;调用查看检修计划服务，获取检修设备信息，组装到参数对象&lt;/span&gt;" style="whiteSpace=wrap;html=1;fontSize=8;fontFamily=Verdana;rounded=0;shadow=0;labelBackgroundColor=none;strokeWidth=1;" vertex="1" parent="cNqAFFshYy9XBHz7ugLl-29">
          <mxGeometry x="30" y="270" width="100" height="60" as="geometry" />
        </mxCell>
        <mxCell id="cNqAFFshYy9XBHz7ugLl-37" style="edgeStyle=orthogonalEdgeStyle;rounded=0;orthogonalLoop=1;jettySize=auto;html=1;exitX=0.5;exitY=1;exitDx=0;exitDy=0;entryX=0.5;entryY=0;entryDx=0;entryDy=0;" edge="1" parent="cNqAFFshYy9XBHz7ugLl-29" source="cNqAFFshYy9XBHz7ugLl-41" target="cNqAFFshYy9XBHz7ugLl-44">
          <mxGeometry relative="1" as="geometry" />
        </mxCell>
        <mxCell id="cNqAFFshYy9XBHz7ugLl-38" value="是" style="edgeLabel;html=1;align=center;verticalAlign=middle;resizable=0;points=[];" vertex="1" connectable="0" parent="cNqAFFshYy9XBHz7ugLl-37">
          <mxGeometry x="-0.3559" relative="1" as="geometry">
            <mxPoint as="offset" />
          </mxGeometry>
        </mxCell>
        <mxCell id="cNqAFFshYy9XBHz7ugLl-39" style="edgeStyle=orthogonalEdgeStyle;rounded=0;orthogonalLoop=1;jettySize=auto;html=1;exitX=0;exitY=0.5;exitDx=0;exitDy=0;entryX=0.5;entryY=0;entryDx=0;entryDy=0;" edge="1" parent="cNqAFFshYy9XBHz7ugLl-29" source="cNqAFFshYy9XBHz7ugLl-41" target="cNqAFFshYy9XBHz7ugLl-49">
          <mxGeometry relative="1" as="geometry">
            <Array as="points">
              <mxPoint x="10" y="403" />
              <mxPoint x="10" y="790" />
              <mxPoint x="80" y="790" />
            </Array>
          </mxGeometry>
        </mxCell>
        <mxCell id="cNqAFFshYy9XBHz7ugLl-40" value="否" style="edgeLabel;html=1;align=center;verticalAlign=middle;resizable=0;points=[];" vertex="1" connectable="0" parent="cNqAFFshYy9XBHz7ugLl-39">
          <mxGeometry x="-0.8979" y="1" relative="1" as="geometry">
            <mxPoint as="offset" />
          </mxGeometry>
        </mxCell>
        <mxCell id="cNqAFFshYy9XBHz7ugLl-41" value="&lt;span style=&quot;font-size: 12px;&quot;&gt;请求参数中&lt;/span&gt;&lt;div&gt;&lt;span style=&quot;font-size: 12px;&quot;&gt;工作地点id和电站类型不为空&lt;/span&gt;&lt;/div&gt;" style="rhombus;whiteSpace=wrap;html=1;rounded=0;shadow=0;labelBackgroundColor=none;strokeWidth=1;fontFamily=Verdana;fontSize=8;align=center;" vertex="1" parent="cNqAFFshYy9XBHz7ugLl-29">
          <mxGeometry x="30" y="365" width="100" height="75" as="geometry" />
        </mxCell>
        <mxCell id="cNqAFFshYy9XBHz7ugLl-42" style="edgeStyle=orthogonalEdgeStyle;rounded=0;orthogonalLoop=1;jettySize=auto;html=1;entryX=0.5;entryY=0;entryDx=0;entryDy=0;" edge="1" parent="cNqAFFshYy9XBHz7ugLl-29" target="cNqAFFshYy9XBHz7ugLl-49">
          <mxGeometry relative="1" as="geometry">
            <mxPoint x="80" y="740" as="sourcePoint" />
          </mxGeometry>
        </mxCell>
        <mxCell id="cNqAFFshYy9XBHz7ugLl-43" style="edgeStyle=orthogonalEdgeStyle;rounded=0;orthogonalLoop=1;jettySize=auto;html=1;exitX=0.5;exitY=1;exitDx=0;exitDy=0;" edge="1" parent="cNqAFFshYy9XBHz7ugLl-29" source="cNqAFFshYy9XBHz7ugLl-44" target="cNqAFFshYy9XBHz7ugLl-54">
          <mxGeometry relative="1" as="geometry" />
        </mxCell>
        <mxCell id="cNqAFFshYy9XBHz7ugLl-44" value="&lt;span style=&quot;font-size: 12px;&quot;&gt;调用查询电网设备台账列表服务，获取操作票工作地点数据，组装到参数对象&lt;/span&gt;" style="whiteSpace=wrap;html=1;fontSize=8;fontFamily=Verdana;rounded=0;shadow=0;labelBackgroundColor=none;strokeWidth=1;" vertex="1" parent="cNqAFFshYy9XBHz7ugLl-29">
          <mxGeometry x="30" y="480" width="100" height="60" as="geometry" />
        </mxCell>
        <mxCell id="cNqAFFshYy9XBHz7ugLl-45" style="edgeStyle=orthogonalEdgeStyle;rounded=0;orthogonalLoop=1;jettySize=auto;html=1;exitX=0.5;exitY=1;exitDx=0;exitDy=0;" edge="1" parent="cNqAFFshYy9XBHz7ugLl-29" source="cNqAFFshYy9XBHz7ugLl-49" target="cNqAFFshYy9XBHz7ugLl-57">
          <mxGeometry relative="1" as="geometry" />
        </mxCell>
        <mxCell id="cNqAFFshYy9XBHz7ugLl-46" value="是" style="edgeLabel;html=1;align=center;verticalAlign=middle;resizable=0;points=[];" vertex="1" connectable="0" parent="cNqAFFshYy9XBHz7ugLl-45">
          <mxGeometry x="-0.3778" y="2" relative="1" as="geometry">
            <mxPoint as="offset" />
          </mxGeometry>
        </mxCell>
        <mxCell id="cNqAFFshYy9XBHz7ugLl-47" style="edgeStyle=orthogonalEdgeStyle;rounded=0;orthogonalLoop=1;jettySize=auto;html=1;exitX=0;exitY=0.5;exitDx=0;exitDy=0;entryX=0.5;entryY=0;entryDx=0;entryDy=0;" edge="1" parent="cNqAFFshYy9XBHz7ugLl-29" source="cNqAFFshYy9XBHz7ugLl-49" target="cNqAFFshYy9XBHz7ugLl-60">
          <mxGeometry relative="1" as="geometry">
            <Array as="points">
              <mxPoint x="10" y="847" />
              <mxPoint x="10" y="1020" />
              <mxPoint x="80" y="1020" />
            </Array>
          </mxGeometry>
        </mxCell>
        <mxCell id="cNqAFFshYy9XBHz7ugLl-48" value="否" style="edgeLabel;html=1;align=center;verticalAlign=middle;resizable=0;points=[];" vertex="1" connectable="0" parent="cNqAFFshYy9XBHz7ugLl-47">
          <mxGeometry x="-0.9067" y="1" relative="1" as="geometry">
            <mxPoint as="offset" />
          </mxGeometry>
        </mxCell>
        <mxCell id="cNqAFFshYy9XBHz7ugLl-49" value="&lt;span style=&quot;font-size: 12px;&quot;&gt;请求参数有维护班组ID但没有维护班组名称&lt;/span&gt;" style="rhombus;whiteSpace=wrap;html=1;rounded=0;shadow=0;labelBackgroundColor=none;strokeWidth=1;fontFamily=Verdana;fontSize=8;align=center;" vertex="1" parent="cNqAFFshYy9XBHz7ugLl-29">
          <mxGeometry x="30" y="810" width="100" height="75" as="geometry" />
        </mxCell>
        <mxCell id="cNqAFFshYy9XBHz7ugLl-50" style="edgeStyle=orthogonalEdgeStyle;rounded=0;orthogonalLoop=1;jettySize=auto;html=1;exitX=0.5;exitY=1;exitDx=0;exitDy=0;entryX=0.5;entryY=0;entryDx=0;entryDy=0;" edge="1" parent="cNqAFFshYy9XBHz7ugLl-29" source="cNqAFFshYy9XBHz7ugLl-54" target="cNqAFFshYy9XBHz7ugLl-55">
          <mxGeometry relative="1" as="geometry" />
        </mxCell>
        <mxCell id="cNqAFFshYy9XBHz7ugLl-51" value="是" style="edgeLabel;html=1;align=center;verticalAlign=middle;resizable=0;points=[];" vertex="1" connectable="0" parent="cNqAFFshYy9XBHz7ugLl-50">
          <mxGeometry x="-0.4667" y="2" relative="1" as="geometry">
            <mxPoint as="offset" />
          </mxGeometry>
        </mxCell>
        <mxCell id="cNqAFFshYy9XBHz7ugLl-52" style="edgeStyle=orthogonalEdgeStyle;rounded=0;orthogonalLoop=1;jettySize=auto;html=1;exitX=0;exitY=0.5;exitDx=0;exitDy=0;" edge="1" parent="cNqAFFshYy9XBHz7ugLl-29" source="cNqAFFshYy9XBHz7ugLl-54">
          <mxGeometry relative="1" as="geometry">
            <mxPoint x="10" y="617.8235294117646" as="targetPoint" />
          </mxGeometry>
        </mxCell>
        <mxCell id="cNqAFFshYy9XBHz7ugLl-53" value="否" style="edgeLabel;html=1;align=center;verticalAlign=middle;resizable=0;points=[];" vertex="1" connectable="0" parent="cNqAFFshYy9XBHz7ugLl-52">
          <mxGeometry x="-0.237" relative="1" as="geometry">
            <mxPoint y="12" as="offset" />
          </mxGeometry>
        </mxCell>
        <mxCell id="cNqAFFshYy9XBHz7ugLl-54" value="&lt;span style=&quot;font-size: 12px;&quot;&gt;操作票工作地点数据为空，且电站类型为变电站或&lt;/span&gt;&lt;span style=&quot;font-size: 12px;&quot;&gt;换流站&lt;/span&gt;" style="rhombus;whiteSpace=wrap;html=1;rounded=0;shadow=0;labelBackgroundColor=none;strokeWidth=1;fontFamily=Verdana;fontSize=8;align=center;" vertex="1" parent="cNqAFFshYy9XBHz7ugLl-29">
          <mxGeometry x="30" y="580" width="100" height="75" as="geometry" />
        </mxCell>
        <mxCell id="cNqAFFshYy9XBHz7ugLl-55" value="&lt;span style=&quot;font-size: 12px;&quot;&gt;调用es查询服务，获取操作票工作地点数据，组装到参数对象&lt;/span&gt;" style="whiteSpace=wrap;html=1;fontSize=8;fontFamily=Verdana;rounded=0;shadow=0;labelBackgroundColor=none;strokeWidth=1;" vertex="1" parent="cNqAFFshYy9XBHz7ugLl-29">
          <mxGeometry x="30" y="700" width="100" height="60" as="geometry" />
        </mxCell>
        <mxCell id="cNqAFFshYy9XBHz7ugLl-56" style="edgeStyle=orthogonalEdgeStyle;rounded=0;orthogonalLoop=1;jettySize=auto;html=1;exitX=0.5;exitY=1;exitDx=0;exitDy=0;entryX=0.5;entryY=0;entryDx=0;entryDy=0;" edge="1" parent="cNqAFFshYy9XBHz7ugLl-29" source="cNqAFFshYy9XBHz7ugLl-57" target="cNqAFFshYy9XBHz7ugLl-60">
          <mxGeometry relative="1" as="geometry" />
        </mxCell>
        <mxCell id="cNqAFFshYy9XBHz7ugLl-57" value="&lt;span style=&quot;font-size: 12px;&quot;&gt;调用接口查询班组信息，并组装到请求参数对象&lt;/span&gt;" style="whiteSpace=wrap;html=1;fontSize=8;fontFamily=Verdana;rounded=0;shadow=0;labelBackgroundColor=none;strokeWidth=1;" vertex="1" parent="cNqAFFshYy9XBHz7ugLl-29">
          <mxGeometry x="30" y="930" width="100" height="60" as="geometry" />
        </mxCell>
        <mxCell id="cNqAFFshYy9XBHz7ugLl-58" style="edgeStyle=orthogonalEdgeStyle;rounded=0;orthogonalLoop=1;jettySize=auto;html=1;exitX=0.5;exitY=1;exitDx=0;exitDy=0;entryX=0.5;entryY=0;entryDx=0;entryDy=0;" edge="1" parent="cNqAFFshYy9XBHz7ugLl-29" source="cNqAFFshYy9XBHz7ugLl-60" target="cNqAFFshYy9XBHz7ugLl-61">
          <mxGeometry relative="1" as="geometry" />
        </mxCell>
        <mxCell id="cNqAFFshYy9XBHz7ugLl-59" value="是" style="edgeLabel;html=1;align=center;verticalAlign=middle;resizable=0;points=[];" vertex="1" connectable="0" parent="cNqAFFshYy9XBHz7ugLl-58">
          <mxGeometry x="-0.0118" y="1" relative="1" as="geometry">
            <mxPoint as="offset" />
          </mxGeometry>
        </mxCell>
        <mxCell id="cNqAFFshYy9XBHz7ugLl-60" value="&lt;span style=&quot;font-size: 12px;&quot;&gt;请求参数有运维单位ID但没有运维单位名称&lt;/span&gt;" style="rhombus;whiteSpace=wrap;html=1;rounded=0;shadow=0;labelBackgroundColor=none;strokeWidth=1;fontFamily=Verdana;fontSize=8;align=center;" vertex="1" parent="cNqAFFshYy9XBHz7ugLl-29">
          <mxGeometry x="30" y="1050" width="100" height="75" as="geometry" />
        </mxCell>
        <mxCell id="cNqAFFshYy9XBHz7ugLl-61" value="&lt;span style=&quot;font-size: 12px;&quot;&gt;调用接口查询班组信息，并组装到请求参数对象&lt;/span&gt;" style="whiteSpace=wrap;html=1;fontSize=8;fontFamily=Verdana;rounded=0;shadow=0;labelBackgroundColor=none;strokeWidth=1;" vertex="1" parent="cNqAFFshYy9XBHz7ugLl-29">
          <mxGeometry x="30" y="1170" width="100" height="60" as="geometry" />
        </mxCell>
        <mxCell id="cNqAFFshYy9XBHz7ugLl-62" value="操作票数据组装-2" style="swimlane;html=1;startSize=20;" vertex="1" parent="cNqAFFshYy9XBHz7ugLl-1">
          <mxGeometry x="480" y="20" width="160" height="1440" as="geometry" />
        </mxCell>
        <mxCell id="cNqAFFshYy9XBHz7ugLl-63" value="" style="edgeStyle=orthogonalEdgeStyle;rounded=0;orthogonalLoop=1;jettySize=auto;html=1;entryX=0.5;entryY=0;entryDx=0;entryDy=0;" edge="1" parent="cNqAFFshYy9XBHz7ugLl-62" source="cNqAFFshYy9XBHz7ugLl-64" target="cNqAFFshYy9XBHz7ugLl-66">
          <mxGeometry relative="1" as="geometry">
            <mxPoint x="80" y="250" as="targetPoint" />
          </mxGeometry>
        </mxCell>
        <mxCell id="cNqAFFshYy9XBHz7ugLl-64" value="&lt;span style=&quot;font-size: 12px;&quot;&gt;根据专业类型&lt;/span&gt;&lt;div&gt;&lt;span style=&quot;font-size: 12px;&quot;&gt;设置票名称和操作票种类&lt;/span&gt;&lt;/div&gt;" style="whiteSpace=wrap;html=1;fontSize=8;fontFamily=Verdana;rounded=0;shadow=0;labelBackgroundColor=none;strokeWidth=1;" vertex="1" parent="cNqAFFshYy9XBHz7ugLl-62">
          <mxGeometry x="30" y="160" width="100" height="60" as="geometry" />
        </mxCell>
        <mxCell id="cNqAFFshYy9XBHz7ugLl-65" style="edgeStyle=orthogonalEdgeStyle;rounded=0;orthogonalLoop=1;jettySize=auto;html=1;exitX=0.5;exitY=1;exitDx=0;exitDy=0;" edge="1" parent="cNqAFFshYy9XBHz7ugLl-62" source="cNqAFFshYy9XBHz7ugLl-66" target="cNqAFFshYy9XBHz7ugLl-68">
          <mxGeometry relative="1" as="geometry" />
        </mxCell>
        <mxCell id="cNqAFFshYy9XBHz7ugLl-111" value="是" style="edgeLabel;html=1;align=center;verticalAlign=middle;resizable=0;points=[];" vertex="1" connectable="0" parent="cNqAFFshYy9XBHz7ugLl-65">
          <mxGeometry x="-0.3067" relative="1" as="geometry">
            <mxPoint as="offset" />
          </mxGeometry>
        </mxCell>
        <mxCell id="cNqAFFshYy9XBHz7ugLl-113" style="edgeStyle=orthogonalEdgeStyle;rounded=0;orthogonalLoop=1;jettySize=auto;html=1;exitX=0;exitY=0.5;exitDx=0;exitDy=0;entryX=0.5;entryY=0;entryDx=0;entryDy=0;" edge="1" parent="cNqAFFshYy9XBHz7ugLl-62" source="cNqAFFshYy9XBHz7ugLl-66" target="cNqAFFshYy9XBHz7ugLl-112">
          <mxGeometry relative="1" as="geometry">
            <Array as="points">
              <mxPoint x="10" y="298" />
              <mxPoint x="10" y="760" />
              <mxPoint x="80" y="760" />
            </Array>
          </mxGeometry>
        </mxCell>
        <mxCell id="cNqAFFshYy9XBHz7ugLl-115" value="否" style="edgeLabel;html=1;align=center;verticalAlign=middle;resizable=0;points=[];" vertex="1" connectable="0" parent="cNqAFFshYy9XBHz7ugLl-113">
          <mxGeometry x="-0.9755" y="1" relative="1" as="geometry">
            <mxPoint x="-3" y="1" as="offset" />
          </mxGeometry>
        </mxCell>
        <mxCell id="cNqAFFshYy9XBHz7ugLl-66" value="&lt;span style=&quot;font-size: 12px;&quot;&gt;配电专业或者&lt;/span&gt;&lt;div&gt;&lt;span style=&quot;font-size: 12px;&quot;&gt;一键顺控类型为常规&lt;/span&gt;&lt;/div&gt;" style="rhombus;whiteSpace=wrap;html=1;rounded=0;shadow=0;labelBackgroundColor=none;strokeWidth=1;fontFamily=Verdana;fontSize=8;align=center;" vertex="1" parent="cNqAFFshYy9XBHz7ugLl-62">
          <mxGeometry x="30" y="260" width="100" height="75" as="geometry" />
        </mxCell>
        <mxCell id="cNqAFFshYy9XBHz7ugLl-67" style="edgeStyle=orthogonalEdgeStyle;rounded=0;orthogonalLoop=1;jettySize=auto;html=1;exitX=0.5;exitY=1;exitDx=0;exitDy=0;" edge="1" parent="cNqAFFshYy9XBHz7ugLl-62" source="cNqAFFshYy9XBHz7ugLl-68" target="cNqAFFshYy9XBHz7ugLl-70">
          <mxGeometry relative="1" as="geometry" />
        </mxCell>
        <mxCell id="cNqAFFshYy9XBHz7ugLl-68" value="&lt;div&gt;&lt;span style=&quot;font-size: 12px;&quot;&gt;调度令序号设置&lt;/span&gt;&lt;/div&gt;" style="whiteSpace=wrap;html=1;fontSize=8;fontFamily=Verdana;rounded=0;shadow=0;labelBackgroundColor=none;strokeWidth=1;" vertex="1" parent="cNqAFFshYy9XBHz7ugLl-62">
          <mxGeometry x="30" y="380" width="100" height="60" as="geometry" />
        </mxCell>
        <mxCell id="cNqAFFshYy9XBHz7ugLl-69" style="edgeStyle=orthogonalEdgeStyle;rounded=0;orthogonalLoop=1;jettySize=auto;html=1;exitX=0.5;exitY=1;exitDx=0;exitDy=0;entryX=0.5;entryY=0;entryDx=0;entryDy=0;" edge="1" parent="cNqAFFshYy9XBHz7ugLl-62" source="cNqAFFshYy9XBHz7ugLl-70" target="cNqAFFshYy9XBHz7ugLl-72">
          <mxGeometry relative="1" as="geometry" />
        </mxCell>
        <mxCell id="cNqAFFshYy9XBHz7ugLl-70" value="&lt;div&gt;&lt;span style=&quot;font-size: 12px;&quot;&gt;操作设备的操作类型名称设置&lt;/span&gt;&lt;/div&gt;" style="whiteSpace=wrap;html=1;fontSize=8;fontFamily=Verdana;rounded=0;shadow=0;labelBackgroundColor=none;strokeWidth=1;" vertex="1" parent="cNqAFFshYy9XBHz7ugLl-62">
          <mxGeometry x="30" y="480" width="100" height="60" as="geometry" />
        </mxCell>
        <mxCell id="cNqAFFshYy9XBHz7ugLl-71" style="edgeStyle=orthogonalEdgeStyle;rounded=0;orthogonalLoop=1;jettySize=auto;html=1;exitX=0.5;exitY=1;exitDx=0;exitDy=0;entryX=0.5;entryY=0;entryDx=0;entryDy=0;" edge="1" parent="cNqAFFshYy9XBHz7ugLl-62" source="cNqAFFshYy9XBHz7ugLl-72" target="cNqAFFshYy9XBHz7ugLl-73">
          <mxGeometry relative="1" as="geometry" />
        </mxCell>
        <mxCell id="cNqAFFshYy9XBHz7ugLl-72" value="&lt;div&gt;&lt;span style=&quot;font-size: 12px;&quot;&gt;操作票操作项的调度指令号设置&lt;/span&gt;&lt;/div&gt;" style="whiteSpace=wrap;html=1;fontSize=8;fontFamily=Verdana;rounded=0;shadow=0;labelBackgroundColor=none;strokeWidth=1;" vertex="1" parent="cNqAFFshYy9XBHz7ugLl-62">
          <mxGeometry x="30" y="580" width="100" height="60" as="geometry" />
        </mxCell>
        <mxCell id="cNqAFFshYy9XBHz7ugLl-114" style="edgeStyle=orthogonalEdgeStyle;rounded=0;orthogonalLoop=1;jettySize=auto;html=1;exitX=0.5;exitY=1;exitDx=0;exitDy=0;entryX=0.5;entryY=0;entryDx=0;entryDy=0;" edge="1" parent="cNqAFFshYy9XBHz7ugLl-62" source="cNqAFFshYy9XBHz7ugLl-73" target="cNqAFFshYy9XBHz7ugLl-112">
          <mxGeometry relative="1" as="geometry" />
        </mxCell>
        <mxCell id="cNqAFFshYy9XBHz7ugLl-73" value="&lt;div&gt;&lt;span style=&quot;font-size: 12px;&quot;&gt;操作票的总步骤数设置&lt;/span&gt;&lt;/div&gt;" style="whiteSpace=wrap;html=1;fontSize=8;fontFamily=Verdana;rounded=0;shadow=0;labelBackgroundColor=none;strokeWidth=1;" vertex="1" parent="cNqAFFshYy9XBHz7ugLl-62">
          <mxGeometry x="30" y="680" width="100" height="60" as="geometry" />
        </mxCell>
        <mxCell id="cNqAFFshYy9XBHz7ugLl-117" style="edgeStyle=orthogonalEdgeStyle;rounded=0;orthogonalLoop=1;jettySize=auto;html=1;exitX=0.5;exitY=1;exitDx=0;exitDy=0;" edge="1" parent="cNqAFFshYy9XBHz7ugLl-62" source="cNqAFFshYy9XBHz7ugLl-112" target="cNqAFFshYy9XBHz7ugLl-116">
          <mxGeometry relative="1" as="geometry" />
        </mxCell>
        <mxCell id="cNqAFFshYy9XBHz7ugLl-112" value="&lt;div&gt;&lt;span style=&quot;font-size: 12px;&quot;&gt;操作票的操作任务文本拼接&lt;/span&gt;&lt;/div&gt;" style="whiteSpace=wrap;html=1;fontSize=8;fontFamily=Verdana;rounded=0;shadow=0;labelBackgroundColor=none;strokeWidth=1;" vertex="1" parent="cNqAFFshYy9XBHz7ugLl-62">
          <mxGeometry x="30" y="780" width="100" height="60" as="geometry" />
        </mxCell>
        <mxCell id="cNqAFFshYy9XBHz7ugLl-119" style="edgeStyle=orthogonalEdgeStyle;rounded=0;orthogonalLoop=1;jettySize=auto;html=1;exitX=0.5;exitY=1;exitDx=0;exitDy=0;entryX=0.5;entryY=0;entryDx=0;entryDy=0;" edge="1" parent="cNqAFFshYy9XBHz7ugLl-62" source="cNqAFFshYy9XBHz7ugLl-116" target="cNqAFFshYy9XBHz7ugLl-118">
          <mxGeometry relative="1" as="geometry" />
        </mxCell>
        <mxCell id="cNqAFFshYy9XBHz7ugLl-116" value="&lt;div&gt;&lt;span style=&quot;font-size: 12px;&quot;&gt;操作票开票风险措施卡创建&lt;/span&gt;&lt;/div&gt;" style="whiteSpace=wrap;html=1;fontSize=8;fontFamily=Verdana;rounded=0;shadow=0;labelBackgroundColor=none;strokeWidth=1;" vertex="1" parent="cNqAFFshYy9XBHz7ugLl-62">
          <mxGeometry x="30" y="880" width="100" height="60" as="geometry" />
        </mxCell>
        <mxCell id="cNqAFFshYy9XBHz7ugLl-118" value="&lt;div&gt;&lt;span style=&quot;font-size: 12px;&quot;&gt;操作票字段设置默认值&lt;/span&gt;&lt;/div&gt;" style="whiteSpace=wrap;html=1;fontSize=8;fontFamily=Verdana;rounded=0;shadow=0;labelBackgroundColor=none;strokeWidth=1;" vertex="1" parent="cNqAFFshYy9XBHz7ugLl-62">
          <mxGeometry x="30" y="980" width="100" height="60" as="geometry" />
        </mxCell>
        <mxCell id="cNqAFFshYy9XBHz7ugLl-74" value="操作票创建保存" style="swimlane;html=1;startSize=20;" vertex="1" parent="cNqAFFshYy9XBHz7ugLl-1">
          <mxGeometry x="640" y="20" width="160" height="1440" as="geometry" />
        </mxCell>
        <mxCell id="cNqAFFshYy9XBHz7ugLl-126" style="edgeStyle=orthogonalEdgeStyle;rounded=0;orthogonalLoop=1;jettySize=auto;html=1;exitX=0.5;exitY=1;exitDx=0;exitDy=0;entryX=0.5;entryY=0;entryDx=0;entryDy=0;" edge="1" parent="cNqAFFshYy9XBHz7ugLl-74" source="cNqAFFshYy9XBHz7ugLl-120" target="cNqAFFshYy9XBHz7ugLl-125">
          <mxGeometry relative="1" as="geometry" />
        </mxCell>
        <mxCell id="cNqAFFshYy9XBHz7ugLl-120" value="&lt;div&gt;&lt;span style=&quot;font-size: 12px;&quot;&gt;保存&lt;/span&gt;&lt;span style=&quot;font-size: 12px;&quot;&gt;&lt;/span&gt;&lt;/div&gt;&lt;div&gt;&lt;span style=&quot;font-size: 12px;&quot;&gt;操作票主记录&lt;/span&gt;&lt;/div&gt;" style="whiteSpace=wrap;html=1;fontSize=8;fontFamily=Verdana;rounded=0;shadow=0;labelBackgroundColor=none;strokeWidth=1;" vertex="1" parent="cNqAFFshYy9XBHz7ugLl-74">
          <mxGeometry x="30" y="160" width="100" height="60" as="geometry" />
        </mxCell>
        <mxCell id="cNqAFFshYy9XBHz7ugLl-128" style="edgeStyle=orthogonalEdgeStyle;rounded=0;orthogonalLoop=1;jettySize=auto;html=1;exitX=0.5;exitY=1;exitDx=0;exitDy=0;entryX=0.5;entryY=0;entryDx=0;entryDy=0;" edge="1" parent="cNqAFFshYy9XBHz7ugLl-74" source="cNqAFFshYy9XBHz7ugLl-125" target="cNqAFFshYy9XBHz7ugLl-127">
          <mxGeometry relative="1" as="geometry" />
        </mxCell>
        <mxCell id="cNqAFFshYy9XBHz7ugLl-125" value="&lt;div&gt;&lt;span style=&quot;font-size: 12px;&quot;&gt;保存&lt;/span&gt;&lt;span style=&quot;font-size: 12px;&quot;&gt;&lt;/span&gt;&lt;/div&gt;&lt;div&gt;&lt;span style=&quot;font-size: 12px;&quot;&gt;操作票工作地点&lt;/span&gt;&lt;/div&gt;" style="whiteSpace=wrap;html=1;fontSize=8;fontFamily=Verdana;rounded=0;shadow=0;labelBackgroundColor=none;strokeWidth=1;" vertex="1" parent="cNqAFFshYy9XBHz7ugLl-74">
          <mxGeometry x="30" y="260" width="100" height="60" as="geometry" />
        </mxCell>
        <mxCell id="cNqAFFshYy9XBHz7ugLl-130" style="edgeStyle=orthogonalEdgeStyle;rounded=0;orthogonalLoop=1;jettySize=auto;html=1;exitX=0.5;exitY=1;exitDx=0;exitDy=0;entryX=0.5;entryY=0;entryDx=0;entryDy=0;" edge="1" parent="cNqAFFshYy9XBHz7ugLl-74" source="cNqAFFshYy9XBHz7ugLl-127" target="cNqAFFshYy9XBHz7ugLl-129">
          <mxGeometry relative="1" as="geometry" />
        </mxCell>
        <mxCell id="cNqAFFshYy9XBHz7ugLl-127" value="&lt;div&gt;&lt;span style=&quot;font-size: 12px;&quot;&gt;保存&lt;/span&gt;&lt;span style=&quot;font-size: 12px;&quot;&gt;&lt;/span&gt;&lt;/div&gt;&lt;div&gt;&lt;span style=&quot;font-size: 12px;&quot;&gt;操作票操作项&lt;/span&gt;&lt;/div&gt;" style="whiteSpace=wrap;html=1;fontSize=8;fontFamily=Verdana;rounded=0;shadow=0;labelBackgroundColor=none;strokeWidth=1;" vertex="1" parent="cNqAFFshYy9XBHz7ugLl-74">
          <mxGeometry x="30" y="360" width="100" height="60" as="geometry" />
        </mxCell>
        <mxCell id="cNqAFFshYy9XBHz7ugLl-132" style="edgeStyle=orthogonalEdgeStyle;rounded=0;orthogonalLoop=1;jettySize=auto;html=1;exitX=0.5;exitY=1;exitDx=0;exitDy=0;entryX=0.5;entryY=0;entryDx=0;entryDy=0;" edge="1" parent="cNqAFFshYy9XBHz7ugLl-74" source="cNqAFFshYy9XBHz7ugLl-129" target="cNqAFFshYy9XBHz7ugLl-131">
          <mxGeometry relative="1" as="geometry" />
        </mxCell>
        <mxCell id="cNqAFFshYy9XBHz7ugLl-129" value="&lt;div&gt;&lt;span style=&quot;font-size: 12px;&quot;&gt;保存&lt;/span&gt;&lt;span style=&quot;font-size: 12px;&quot;&gt;&lt;/span&gt;&lt;/div&gt;&lt;div&gt;&lt;span style=&quot;font-size: 12px;&quot;&gt;危险点及预防措施子表&lt;/span&gt;&lt;/div&gt;" style="whiteSpace=wrap;html=1;fontSize=8;fontFamily=Verdana;rounded=0;shadow=0;labelBackgroundColor=none;strokeWidth=1;" vertex="1" parent="cNqAFFshYy9XBHz7ugLl-74">
          <mxGeometry x="30" y="460" width="100" height="60" as="geometry" />
        </mxCell>
        <mxCell id="cNqAFFshYy9XBHz7ugLl-133" style="edgeStyle=orthogonalEdgeStyle;rounded=0;orthogonalLoop=1;jettySize=auto;html=1;exitX=0.5;exitY=1;exitDx=0;exitDy=0;" edge="1" parent="cNqAFFshYy9XBHz7ugLl-74" source="cNqAFFshYy9XBHz7ugLl-131">
          <mxGeometry relative="1" as="geometry">
            <mxPoint x="80" y="660" as="targetPoint" />
          </mxGeometry>
        </mxCell>
        <mxCell id="cNqAFFshYy9XBHz7ugLl-131" value="&lt;div&gt;&lt;span style=&quot;font-size: 12px;&quot;&gt;保存&lt;/span&gt;&lt;span style=&quot;font-size: 12px;&quot;&gt;&lt;/span&gt;&lt;/div&gt;&lt;div&gt;&lt;span style=&quot;font-size: 12px;&quot;&gt;操作票-关联设备子表&lt;/span&gt;&lt;/div&gt;" style="whiteSpace=wrap;html=1;fontSize=8;fontFamily=Verdana;rounded=0;shadow=0;labelBackgroundColor=none;strokeWidth=1;" vertex="1" parent="cNqAFFshYy9XBHz7ugLl-74">
          <mxGeometry x="30" y="560" width="100" height="60" as="geometry" />
        </mxCell>
        <mxCell id="cNqAFFshYy9XBHz7ugLl-136" style="edgeStyle=orthogonalEdgeStyle;rounded=0;orthogonalLoop=1;jettySize=auto;html=1;exitX=0.5;exitY=1;exitDx=0;exitDy=0;entryX=0.5;entryY=0;entryDx=0;entryDy=0;" edge="1" parent="cNqAFFshYy9XBHz7ugLl-74" source="cNqAFFshYy9XBHz7ugLl-134" target="cNqAFFshYy9XBHz7ugLl-135">
          <mxGeometry relative="1" as="geometry" />
        </mxCell>
        <mxCell id="cNqAFFshYy9XBHz7ugLl-134" value="&lt;div&gt;&lt;span style=&quot;font-size: 12px;&quot;&gt;保存&lt;/span&gt;&lt;span style=&quot;font-size: 12px;&quot;&gt;&lt;/span&gt;&lt;/div&gt;&lt;div&gt;&lt;span style=&quot;font-size: 12px;&quot;&gt;风险定级表&lt;/span&gt;&lt;/div&gt;" style="whiteSpace=wrap;html=1;fontSize=8;fontFamily=Verdana;rounded=0;shadow=0;labelBackgroundColor=none;strokeWidth=1;" vertex="1" parent="cNqAFFshYy9XBHz7ugLl-74">
          <mxGeometry x="30" y="660" width="100" height="60" as="geometry" />
        </mxCell>
        <mxCell id="cNqAFFshYy9XBHz7ugLl-138" style="edgeStyle=orthogonalEdgeStyle;rounded=0;orthogonalLoop=1;jettySize=auto;html=1;exitX=0.5;exitY=1;exitDx=0;exitDy=0;" edge="1" parent="cNqAFFshYy9XBHz7ugLl-74" source="cNqAFFshYy9XBHz7ugLl-135" target="cNqAFFshYy9XBHz7ugLl-137">
          <mxGeometry relative="1" as="geometry" />
        </mxCell>
        <mxCell id="cNqAFFshYy9XBHz7ugLl-135" value="&lt;div&gt;&lt;span style=&quot;font-size: 12px;&quot;&gt;保存&lt;/span&gt;&lt;span style=&quot;font-size: 12px;&quot;&gt;&lt;/span&gt;&lt;/div&gt;&lt;div&gt;&lt;span style=&quot;font-size: 12px;&quot;&gt;风险预控措施卡主表&lt;/span&gt;&lt;/div&gt;" style="whiteSpace=wrap;html=1;fontSize=8;fontFamily=Verdana;rounded=0;shadow=0;labelBackgroundColor=none;strokeWidth=1;" vertex="1" parent="cNqAFFshYy9XBHz7ugLl-74">
          <mxGeometry x="30" y="760" width="100" height="60" as="geometry" />
        </mxCell>
        <mxCell id="cNqAFFshYy9XBHz7ugLl-140" style="edgeStyle=orthogonalEdgeStyle;rounded=0;orthogonalLoop=1;jettySize=auto;html=1;exitX=0.5;exitY=1;exitDx=0;exitDy=0;entryX=0.5;entryY=0;entryDx=0;entryDy=0;" edge="1" parent="cNqAFFshYy9XBHz7ugLl-74" source="cNqAFFshYy9XBHz7ugLl-137" target="cNqAFFshYy9XBHz7ugLl-139">
          <mxGeometry relative="1" as="geometry" />
        </mxCell>
        <mxCell id="cNqAFFshYy9XBHz7ugLl-137" value="&lt;span style=&quot;font-size: 12px;&quot;&gt;防误云开票调用停电操作接口绑定令与票的关系&lt;/span&gt;" style="whiteSpace=wrap;html=1;fontSize=8;fontFamily=Verdana;rounded=0;shadow=0;labelBackgroundColor=none;strokeWidth=1;" vertex="1" parent="cNqAFFshYy9XBHz7ugLl-74">
          <mxGeometry x="30" y="860" width="100" height="60" as="geometry" />
        </mxCell>
        <mxCell id="cNqAFFshYy9XBHz7ugLl-142" style="edgeStyle=orthogonalEdgeStyle;rounded=0;orthogonalLoop=1;jettySize=auto;html=1;exitX=0.5;exitY=1;exitDx=0;exitDy=0;entryX=0.5;entryY=0;entryDx=0;entryDy=0;" edge="1" parent="cNqAFFshYy9XBHz7ugLl-74" source="cNqAFFshYy9XBHz7ugLl-139" target="cNqAFFshYy9XBHz7ugLl-141">
          <mxGeometry relative="1" as="geometry" />
        </mxCell>
        <mxCell id="cNqAFFshYy9XBHz7ugLl-139" value="&lt;div&gt;&lt;span style=&quot;font-size: 12px;&quot;&gt;保存&lt;/span&gt;&lt;span style=&quot;font-size: 12px;&quot;&gt;&lt;/span&gt;&lt;/div&gt;&lt;div&gt;&lt;span style=&quot;font-size: 12px;&quot;&gt;风险预控措施卡主表&lt;/span&gt;&lt;/div&gt;" style="whiteSpace=wrap;html=1;fontSize=8;fontFamily=Verdana;rounded=0;shadow=0;labelBackgroundColor=none;strokeWidth=1;" vertex="1" parent="cNqAFFshYy9XBHz7ugLl-74">
          <mxGeometry x="30" y="960" width="100" height="60" as="geometry" />
        </mxCell>
        <mxCell id="cNqAFFshYy9XBHz7ugLl-145" style="edgeStyle=orthogonalEdgeStyle;rounded=0;orthogonalLoop=1;jettySize=auto;html=1;exitX=0.5;exitY=1;exitDx=0;exitDy=0;" edge="1" parent="cNqAFFshYy9XBHz7ugLl-74" source="cNqAFFshYy9XBHz7ugLl-141" target="cNqAFFshYy9XBHz7ugLl-144">
          <mxGeometry relative="1" as="geometry" />
        </mxCell>
        <mxCell id="cNqAFFshYy9XBHz7ugLl-141" value="&lt;div&gt;&lt;span style=&quot;font-size: 12px;&quot;&gt;保存&lt;/span&gt;&lt;span style=&quot;font-size: 12px;&quot;&gt;&lt;/span&gt;&lt;/div&gt;&lt;div&gt;&lt;span style=&quot;font-size: 12px;&quot;&gt;两篇流程记录表&lt;/span&gt;&lt;/div&gt;" style="whiteSpace=wrap;html=1;fontSize=8;fontFamily=Verdana;rounded=0;shadow=0;labelBackgroundColor=none;strokeWidth=1;" vertex="1" parent="cNqAFFshYy9XBHz7ugLl-74">
          <mxGeometry x="30" y="1060" width="100" height="60" as="geometry" />
        </mxCell>
        <mxCell id="cNqAFFshYy9XBHz7ugLl-144" value="&lt;span style=&quot;font-size: 12px;&quot;&gt;失败返回&lt;/span&gt;" style="whiteSpace=wrap;html=1;fontSize=8;fontFamily=Verdana;rounded=0;shadow=0;labelBackgroundColor=none;strokeWidth=1;" vertex="1" parent="cNqAFFshYy9XBHz7ugLl-74">
          <mxGeometry x="30" y="1360" width="100" height="60" as="geometry" />
        </mxCell>
        <mxCell id="cNqAFFshYy9XBHz7ugLl-105" style="edgeStyle=orthogonalEdgeStyle;rounded=0;orthogonalLoop=1;jettySize=auto;html=1;exitX=1;exitY=0.5;exitDx=0;exitDy=0;entryX=0.5;entryY=0;entryDx=0;entryDy=0;" edge="1" parent="cNqAFFshYy9XBHz7ugLl-1" source="cNqAFFshYy9XBHz7ugLl-5" target="cNqAFFshYy9XBHz7ugLl-18">
          <mxGeometry relative="1" as="geometry">
            <Array as="points">
              <mxPoint x="150" y="423" />
              <mxPoint x="150" y="130" />
              <mxPoint x="240" y="130" />
            </Array>
          </mxGeometry>
        </mxCell>
        <mxCell id="cNqAFFshYy9XBHz7ugLl-106" value="否" style="edgeLabel;html=1;align=center;verticalAlign=middle;resizable=0;points=[];" vertex="1" connectable="0" parent="cNqAFFshYy9XBHz7ugLl-105">
          <mxGeometry x="-0.9253" relative="1" as="geometry">
            <mxPoint as="offset" />
          </mxGeometry>
        </mxCell>
        <mxCell id="cNqAFFshYy9XBHz7ugLl-107" style="edgeStyle=orthogonalEdgeStyle;rounded=0;orthogonalLoop=1;jettySize=auto;html=1;exitX=0.5;exitY=1;exitDx=0;exitDy=0;" edge="1" parent="cNqAFFshYy9XBHz7ugLl-1" source="cNqAFFshYy9XBHz7ugLl-28">
          <mxGeometry relative="1" as="geometry">
            <mxPoint x="400" y="170" as="targetPoint" />
            <Array as="points">
              <mxPoint x="240" y="710" />
              <mxPoint x="310" y="710" />
              <mxPoint x="310" y="130" />
              <mxPoint x="400" y="130" />
            </Array>
          </mxGeometry>
        </mxCell>
        <mxCell id="cNqAFFshYy9XBHz7ugLl-108" style="edgeStyle=orthogonalEdgeStyle;rounded=0;orthogonalLoop=1;jettySize=auto;html=1;exitX=1;exitY=0.5;exitDx=0;exitDy=0;entryX=0.5;entryY=0;entryDx=0;entryDy=0;" edge="1" parent="cNqAFFshYy9XBHz7ugLl-1" source="cNqAFFshYy9XBHz7ugLl-60" target="cNqAFFshYy9XBHz7ugLl-64">
          <mxGeometry relative="1" as="geometry">
            <Array as="points">
              <mxPoint x="470" y="1107" />
              <mxPoint x="470" y="130" />
              <mxPoint x="560" y="130" />
            </Array>
          </mxGeometry>
        </mxCell>
        <mxCell id="cNqAFFshYy9XBHz7ugLl-109" value="否" style="edgeLabel;html=1;align=center;verticalAlign=middle;resizable=0;points=[];" vertex="1" connectable="0" parent="cNqAFFshYy9XBHz7ugLl-108">
          <mxGeometry x="-0.993" y="3" relative="1" as="geometry">
            <mxPoint y="16" as="offset" />
          </mxGeometry>
        </mxCell>
        <mxCell id="cNqAFFshYy9XBHz7ugLl-110" style="edgeStyle=orthogonalEdgeStyle;rounded=0;orthogonalLoop=1;jettySize=auto;html=1;exitX=0.5;exitY=1;exitDx=0;exitDy=0;entryX=0.5;entryY=0;entryDx=0;entryDy=0;" edge="1" parent="cNqAFFshYy9XBHz7ugLl-1" source="cNqAFFshYy9XBHz7ugLl-61" target="cNqAFFshYy9XBHz7ugLl-64">
          <mxGeometry relative="1" as="geometry">
            <Array as="points">
              <mxPoint x="400" y="1290" />
              <mxPoint x="470" y="1290" />
              <mxPoint x="470" y="130" />
              <mxPoint x="560" y="130" />
            </Array>
          </mxGeometry>
        </mxCell>
        <mxCell id="cNqAFFshYy9XBHz7ugLl-122" style="edgeStyle=orthogonalEdgeStyle;rounded=0;orthogonalLoop=1;jettySize=auto;html=1;exitX=0.5;exitY=1;exitDx=0;exitDy=0;entryX=0.5;entryY=0;entryDx=0;entryDy=0;" edge="1" parent="cNqAFFshYy9XBHz7ugLl-1" source="cNqAFFshYy9XBHz7ugLl-118" target="cNqAFFshYy9XBHz7ugLl-120">
          <mxGeometry relative="1" as="geometry">
            <Array as="points">
              <mxPoint x="560" y="1080" />
              <mxPoint x="630" y="1080" />
              <mxPoint x="630" y="130" />
              <mxPoint x="720" y="130" />
            </Array>
          </mxGeometry>
        </mxCell>
      </root>
    </mxGraphModel>
  </diagram>
</mxfile>
